<?xml version="1.0" encoding="UTF-8" standalone="no"?>
<!DOCTYPE svg PUBLIC "-//W3C//DTD SVG 1.1//EN" "http://www.w3.org/Graphics/SVG/1.1/DTD/svg11.dtd">
<svg width="100%" height="100%" viewBox="0 0 2279 704" version="1.1" xmlns="http://www.w3.org/2000/svg" xmlns:xlink="http://www.w3.org/1999/xlink" xml:space="preserve" xmlns:serif="http://www.serif.com/" style="fill-rule:evenodd;clip-rule:evenodd;stroke-linejoin:round;stroke-miterlimit:2;">
    <rect id="Artboard1" x="0" y="0" width="2278.89" height="703.434" style="fill:none;"/>
    <g>
        <path d="M382.043,489.459c-24.742,0 -43.506,-8.148 -56.293,-24.444c-12.787,-16.296 -19.18,-40.264 -19.18,-71.904c-0,-32.83 6.393,-57.69 19.18,-74.581c12.787,-16.89 31.551,-25.335 56.293,-25.335c14.154,-0 25.663,3.33 34.524,9.991c8.862,6.661 14.066,15.939 15.612,27.834l3.569,0l-0,-112.763l37.825,0l0,267.634l-33.9,1.784l-3.747,-36.041l-3.747,-0c-1.189,11.894 -6.215,21.172 -15.076,27.833c-8.862,6.662 -20.549,9.992 -35.06,9.992Zm53.705,-91.709l-0,-12.846c-0,-39.729 -15.107,-59.593 -45.32,-59.593c-30.926,-0 -46.389,22.6 -46.389,67.8c-0,42.821 15.463,64.232 46.389,64.232c30.213,0 45.32,-19.864 45.32,-59.593Z" style="fill:#eff1f3;fill-rule:nonzero;"/>
        <path d="M649.498,487.675l-1.785,-41.751l-3.746,0c-1.428,14.512 -7.583,25.396 -18.467,32.651c-10.884,7.256 -25.128,10.884 -42.732,10.884c-19.746,0 -35.031,-4.758 -45.855,-14.274c-10.824,-9.516 -16.236,-22.957 -16.236,-40.323c-0,-19.983 7.464,-35.328 22.392,-46.033c14.928,-10.705 36.011,-16.058 63.25,-16.058c13.561,-0 25.455,1.011 35.685,3.033l-0,-8.743c-0,-12.608 -4.431,-21.856 -13.293,-27.744c-8.861,-5.888 -22.035,-9.07 -39.52,-9.546l-45.319,-1.249l3.568,-33.543l38.182,0.535c31.284,0.476 54.509,7.226 69.674,20.251c15.166,13.025 22.749,32.027 22.749,57.006l0,78.863l32.116,3.925l0,30.332l-60.663,1.784Zm-7.494,-82.788c-6.066,-0.952 -12.103,-1.487 -18.11,-1.606c-6.007,-0.119 -12.103,-0.178 -18.288,-0.178c-32.83,-0 -49.245,9.991 -49.245,29.975c0,8.326 2.825,14.749 8.475,19.269c5.65,4.52 13.65,6.78 23.998,6.78c11.776,0 21.619,-2.022 29.529,-6.066c7.91,-4.044 13.828,-9.219 17.753,-15.523c3.925,-6.304 5.888,-12.787 5.888,-19.448l-0,-13.203Z" style="fill:#eff1f3;fill-rule:nonzero;"/>
        <path d="M810.078,489.459c-14.274,0 -26.496,-0.416 -36.666,-1.249c-10.17,-0.832 -19.478,-2.2 -27.923,-4.104l4.282,-34.257c12.49,1.904 23.522,3.331 33.097,4.282c9.576,0.952 18.646,1.428 27.21,1.428c19.151,-0 33.038,-1.874 41.661,-5.62c8.624,-3.747 12.936,-9.724 12.936,-17.932c0,-5.709 -1.517,-9.962 -4.55,-12.757c-3.033,-2.795 -7.702,-4.966 -14.006,-6.512l-43.535,-11.063c-18.675,-4.758 -32.384,-10.646 -41.126,-17.663c-8.743,-7.018 -13.114,-17.664 -13.114,-31.938c-0,-20.697 7.939,-35.685 23.819,-44.963c15.88,-9.278 41.483,-13.916 76.811,-13.916c17.366,-0 34.019,1.189 49.958,3.568l-3.925,32.83c-9.635,-0.952 -18.14,-1.606 -25.515,-1.963c-7.374,-0.357 -14.571,-0.535 -21.589,-0.535c-21.172,-0 -36.517,1.814 -46.033,5.442c-9.515,3.628 -14.273,9.545 -14.273,17.753c-0,5.471 1.962,9.426 5.888,11.865c3.925,2.438 9.932,4.668 18.02,6.691l34.971,8.564c19.864,4.758 34.406,11.122 43.624,19.091c9.219,7.97 13.828,19.567 13.828,34.792c0,20.341 -7.434,35.12 -22.303,44.338c-14.868,9.219 -38.717,13.828 -71.547,13.828Z" style="fill:#eff1f3;fill-rule:nonzero;"/>
        <path d="M1078.07,485.891l0,-123.112c0,-12.014 -2.973,-21.262 -8.921,-27.744c-5.947,-6.483 -14.274,-9.724 -24.979,-9.724c-29.737,-0 -44.606,18.08 -44.606,54.24l0,106.34l-37.825,-0l-0,-267.634l37.825,0l0,112.763l3.569,0c2.141,-25.217 18.794,-37.825 49.958,-37.825c19.983,-0 35.447,6.066 46.39,18.199c10.943,12.132 16.415,29.261 16.415,51.385l-0,123.112l-37.826,-0Z" style="fill:#eff1f3;fill-rule:nonzero;"/>
        <path d="M1271.12,489.459c-32.235,0 -57.125,-8.475 -74.669,-25.425c-17.545,-16.95 -26.318,-41.305 -26.318,-73.064c0,-30.927 8.297,-54.954 24.89,-72.083c16.593,-17.128 40.294,-25.692 71.101,-25.692c18.437,-0 34.228,3.419 47.372,10.259c13.143,6.839 22.511,16.504 28.101,28.993l-29.083,21.946c-5.352,-8.683 -12.192,-15.403 -20.518,-20.161c-8.327,-4.758 -17.426,-7.137 -27.299,-7.137c-17.842,-0 -31.7,5.382 -41.572,16.147c-9.873,10.765 -14.809,26.079 -14.809,45.944c-0,21.529 5.798,37.974 17.396,49.334c11.597,11.359 28.161,17.039 49.69,17.039c8.803,-0 17.605,-0.416 26.407,-1.249c8.802,-0.833 17.366,-1.963 25.693,-3.39l4.282,33.186c-9.754,2.142 -19.835,3.569 -30.243,4.283c-10.408,0.713 -20.548,1.07 -30.421,1.07Z" style="fill:#eff1f3;fill-rule:nonzero;"/>
        <path d="M1467.03,489.459c-26.169,0 -46.509,-8.564 -61.02,-25.693c-14.512,-17.128 -21.768,-41.275 -21.768,-72.439c0,-31.284 7.256,-55.46 21.768,-72.529c14.511,-17.069 34.851,-25.603 61.02,-25.603c26.288,-0 46.657,8.534 61.11,25.603c14.452,17.069 21.678,41.245 21.678,72.529c0,31.164 -7.226,55.311 -21.678,72.439c-14.453,17.129 -34.822,25.693 -61.11,25.693Zm0,-33.9c13.917,-0 24.652,-5.591 32.205,-16.772c7.554,-11.181 11.33,-27.001 11.33,-47.46c0,-20.578 -3.776,-36.428 -11.33,-47.55c-7.553,-11.121 -18.288,-16.682 -32.205,-16.682c-13.917,-0 -24.652,5.561 -32.205,16.682c-7.553,11.122 -11.33,26.972 -11.33,47.55c-0,20.459 3.777,36.279 11.33,47.46c7.553,11.181 18.288,16.772 32.205,16.772Z" style="fill:#eff1f3;fill-rule:nonzero;"/>
        <path d="M1602.63,485.891l0,-33.187l72.083,0l-0,-122.754l-61.378,-0l0,-33.187l99.203,-0l0,155.941l58.166,0l-0,33.187l-168.074,-0Zm89.747,-219.103c-7.256,-0 -13.471,-2.587 -18.646,-7.761c-5.174,-5.175 -7.761,-11.39 -7.761,-18.646c0,-7.374 2.587,-13.619 7.761,-18.734c5.175,-5.115 11.39,-7.672 18.646,-7.672c7.374,-0 13.619,2.557 18.734,7.672c5.115,5.115 7.672,11.36 7.672,18.734c0,7.256 -2.557,13.471 -7.672,18.646c-5.115,5.174 -11.36,7.761 -18.734,7.761Z" style="fill:#eff1f3;fill-rule:nonzero;"/>
        <path d="M1934.5,485.891l-0,-123.112c-0,-11.419 -2.974,-20.221 -8.921,-26.406c-5.948,-6.186 -14.274,-9.278 -24.98,-9.278c-29.737,-0 -44.605,17.485 -44.605,52.456l-0,106.34l-37.826,-0l0,-189.128l34.257,-0l3.034,34.257l4.103,0c2.141,-25.217 18.794,-37.825 49.959,-37.825c19.983,-0 35.446,6.066 46.389,18.199c10.944,12.132 16.415,29.261 16.415,51.385l0,123.112l-37.825,-0Z" style="fill:#eff1f3;fill-rule:nonzero;"/>
        <path d="M231.248,455.132l-179.313,-73.747l0,-37.809l179.313,-73.747l0,41.178l-138.509,49.789l0,3.369l138.509,49.788l0,41.179Z" style="fill:#fdef5f;fill-rule:nonzero;"/>
        <path d="M2047.64,455.132l-0,-41.179l131.022,-49.788l0,-3.369l-131.022,-49.789l-0,-41.178l179.313,73.747l0,37.809l-179.313,73.747Z" style="fill:#fdef5f;fill-rule:nonzero;"/>
    </g>
</svg>
